# xmcd
#
# Track frame offsets:
#	150
#	14309
#	26773
#	40872
#	54857
#	66721
#	79591
#	95395
#	108546
#	123969
#	137185
#
# Disc length: 2017 seconds
#
# Revision: 1
# Processed by: cddbd v1.5.2PL0 Copyright (c) Steve Scherf et al.
# Submitted via: audiograbber 1.83.01
#
DISCID=9007df0b
DTITLE=Alessandro and Adriano - Dig dim
DYEAR=1900
DGENRE=
TTITLE0=A que delicia
TTITLE1=Dig dim
TTITLE2=Pode esperar
TTITLE3=Moleque atentado
TTITLE4=La na minha casa
TTITLE5=Sai da minha vida
TTITLE6=Momentos de prazer
TTITLE7=Vida de solteiro
TTITLE8=Musa desse lamento
TTITLE9=Fonte de desejo
TTITLE10=Rios de prazer
EXTD=
EXTT0=
EXTT1=
EXTT2=
EXTT3=
EXTT4=
EXTT5=
EXTT6=
EXTT7=
EXTT8=
EXTT9=
EXTT10=
PLAYORDER=
